# xmcd CD database file
#
# Track frame offsets:
#	150
#	14024
#	29843
#	45072
#	58777
#	73080
#	85062
#	98186
#	118343
#
# Disc length: 1762 seconds
#
# Revision: 0
# Processed by: cddbd v1.5.2PL0 Copyright (c) Steve Scherf et al.
# Submitted via: CDex 1.51
#
DISCID=7a06e009
DTITLE=King Paris and The Martini Kings - Show Of Stars
DYEAR=2008
DGENRE=Jazz
TTITLE0=Invasion
TTITLE1=Shadows On The Sand
TTITLE2=Surfin' Sitar
TTITLE3=Let's Rumble
TTITLE4=The Kings Ride
TTITLE5=Bongo Mambo
TTITLE6=No Drink 'Til Cabo
TTITLE7=Steelin' A Wave
TTITLE8=Return To Bikini Beach
EXTD=YEAR: 2008
EXTT0=
EXTT1=
EXTT2=
EXTT3=
EXTT4=
EXTT5=
EXTT6=
EXTT7=
EXTT8=
PLAYORDER=
